<svg xmlns="http://www.w3.org/2000/svg" viewBox="0 0 800 533">
  <defs>
    <linearGradient id="watchBg" x1="0%" y1="0%" x2="100%" y2="100%">
      <stop offset="0%" style="stop-color:#1a1a1a"/>
      <stop offset="100%" style="stop-color:#0d0d0d"/>
    </linearGradient>
    <linearGradient id="goldGrad" x1="0%" y1="0%" x2="100%" y2="0%">
      <stop offset="0%" style="stop-color:#C9A84C"/>
      <stop offset="100%" style="stop-color:#D4B86A"/>
    </linearGradient>
    <linearGradient id="watchFace" x1="0%" y1="0%" x2="100%" y2="100%">
      <stop offset="0%" style="stop-color:#4a5a3a"/>
      <stop offset="50%" style="stop-color:#3a4a2a"/>
      <stop offset="100%" style="stop-color:#2a3a20"/>
    </linearGradient>
    <clipPath id="heroClip">
      <rect x="400" y="30" width="400" height="340"/>
    </clipPath>
  </defs>

  <!-- Background -->
  <rect width="800" height="533" fill="url(#watchBg)"/>

  <!-- Nav bar -->
  <rect x="0" y="0" width="800" height="30" fill="#111"/>
  <text x="40" y="20" fill="#C9A84C" font-family="sans-serif" font-size="11" font-weight="bold" letter-spacing="2">MANILA WATCH</text>
  <text x="175" y="20" fill="#C9A84C" font-family="sans-serif" font-size="11" font-style="italic" letter-spacing="1">ATELIER</text>
  <line x1="330" y1="24" x2="355" y2="24" stroke="#C9A84C" stroke-width="1.5"/>
  <text x="330" y="20" fill="#fff" font-family="sans-serif" font-size="10">Home</text>
  <text x="375" y="20" fill="#888" font-family="sans-serif" font-size="10">Inventory</text>
  <text x="445" y="20" fill="#888" font-family="sans-serif" font-size="10">Favorites</text>
  <!-- Search bar -->
  <rect x="530" y="7" width="130" height="18" rx="9" fill="#222" stroke="#444" stroke-width="0.5"/>
  <text x="545" y="19" fill="#666" font-family="sans-serif" font-size="8">Search watches...</text>
  <!-- USD -->
  <rect x="675" y="7" width="55" height="18" rx="4" fill="#333"/>
  <text x="685" y="19" fill="#ccc" font-family="sans-serif" font-size="9">US USD</text>

  <!-- Brands text -->
  <text x="60" y="65" fill="#888" font-family="sans-serif" font-size="8" letter-spacing="3">ROLEX · PATEK PHILIPPE · AUDEMARS PIGUET · CARTIER</text>

  <!-- Hero heading -->
  <text x="60" y="120" fill="#fff" font-family="serif" font-size="40" font-weight="300">Ultra-Luxury</text>
  <text x="60" y="170" fill="url(#goldGrad)" font-family="serif" font-size="42" font-style="italic">Timepieces</text>

  <!-- Description -->
  <text x="60" y="205" fill="#999" font-family="sans-serif" font-size="10">Curated by Sherard W Ng. Discover the world's most prestigious</text>
  <text x="60" y="220" fill="#999" font-family="sans-serif" font-size="10">watchmakers - Rolex, Patek Philippe, Audemars Piguet, and Cartier.</text>
  <text x="60" y="235" fill="#999" font-family="sans-serif" font-size="10">Each piece authenticated and certified.</text>

  <!-- CTA Button -->
  <rect x="60" y="260" width="155" height="36" rx="6" fill="none" stroke="#C9A84C" stroke-width="1.5"/>
  <text x="82" y="283" fill="#C9A84C" font-family="sans-serif" font-size="12">Explore Collection →</text>

  <!-- Watch hero image area (right side) - Rolex close-up representation -->
  <g clip-path="url(#heroClip)">
    <!-- Watch bezel -->
    <circle cx="620" cy="200" r="170" fill="none" stroke="#555" stroke-width="25"/>
    <circle cx="620" cy="200" r="155" fill="url(#watchFace)"/>
    <!-- Bezel ridges -->
    <circle cx="620" cy="200" r="180" fill="none" stroke="#666" stroke-width="2" stroke-dasharray="4 6"/>
    <!-- Watch face details -->
    <circle cx="620" cy="200" r="140" fill="none" stroke="#4a5a3a" stroke-width="1"/>
    <!-- Hour markers -->
    <line x1="620" y1="70" x2="620" y2="85" stroke="#C9A84C" stroke-width="2"/>
    <line x1="620" y1="315" x2="620" y2="330" stroke="#C9A84C" stroke-width="2"/>
    <line x1="485" y1="200" x2="500" y2="200" stroke="#C9A84C" stroke-width="2"/>
    <line x1="740" y1="200" x2="755" y2="200" stroke="#C9A84C" stroke-width="2"/>
    <!-- Date window -->
    <rect x="680" y="192" width="22" height="16" rx="2" fill="#fff"/>
    <text x="686" y="204" fill="#333" font-family="sans-serif" font-size="10" font-weight="bold">22</text>
    <!-- Hands -->
    <line x1="620" y1="200" x2="620" y2="105" stroke="#C9A84C" stroke-width="2.5" stroke-linecap="round"/>
    <line x1="620" y1="200" x2="680" y2="160" stroke="#C9A84C" stroke-width="2" stroke-linecap="round"/>
    <line x1="620" y1="200" x2="590" y2="130" stroke="#e44" stroke-width="1" stroke-linecap="round"/>
    <circle cx="620" cy="200" r="4" fill="#C9A84C"/>
    <!-- Crown -->
    <rect x="764" y="190" width="20" height="20" rx="3" fill="#888"/>
    <!-- Bracelet links -->
    <rect x="560" y="340" width="120" height="30" rx="2" fill="#777"/>
    <rect x="565" y="345" width="25" height="20" rx="1" fill="#888"/>
    <rect x="595" y="345" width="25" height="20" rx="1" fill="#888"/>
    <rect x="625" y="345" width="25" height="20" rx="1" fill="#888"/>
    <rect x="655" y="345" width="25" height="20" rx="1" fill="#888"/>
  </g>

  <!-- Carousel dots -->
  <rect x="370" y="340" width="20" height="4" rx="2" fill="#C9A84C"/>
  <circle cx="400" cy="342" r="3" fill="#555"/>
  <circle cx="412" cy="342" r="3" fill="#555"/>
  <circle cx="424" cy="342" r="3" fill="#555"/>
  <circle cx="436" cy="342" r="3" fill="#555"/>

  <!-- Separator line -->
  <line x1="0" y1="360" x2="800" y2="360" stroke="#222" stroke-width="1"/>

  <!-- Product cards row -->
  <!-- Card 1 -->
  <rect x="80" y="380" width="190" height="140" rx="6" fill="#1a1a1a" stroke="#2a2a2a" stroke-width="1"/>
  <rect x="90" y="390" width="170" height="95" rx="4" fill="#252525"/>
  <!-- Watch silhouette 1 -->
  <circle cx="175" cy="435" r="30" fill="none" stroke="#555" stroke-width="3"/>
  <circle cx="175" cy="435" r="22" fill="#1a3a5a"/>
  <rect x="200" y="425" width="8" height="20" rx="2" fill="#555"/>
  <text x="237" y="400" fill="#666" font-family="sans-serif" font-size="10">♡</text>
  <text x="252" y="400" fill="#666" font-family="sans-serif" font-size="10">⤴</text>

  <!-- Card 2 -->
  <rect x="300" y="380" width="190" height="140" rx="6" fill="#1a1a1a" stroke="#2a2a2a" stroke-width="1"/>
  <rect x="310" y="390" width="170" height="95" rx="4" fill="#252525"/>
  <!-- Watch silhouette 2 -->
  <circle cx="395" cy="435" r="30" fill="none" stroke="#555" stroke-width="3"/>
  <circle cx="395" cy="435" r="22" fill="#e8e8e8"/>
  <rect x="420" y="425" width="8" height="20" rx="2" fill="#555"/>
  <text x="457" y="400" fill="#666" font-family="sans-serif" font-size="10">♡</text>
  <text x="472" y="400" fill="#666" font-family="sans-serif" font-size="10">⤴</text>

  <!-- Card 3 -->
  <rect x="520" y="380" width="190" height="140" rx="6" fill="#1a1a1a" stroke="#2a2a2a" stroke-width="1"/>
  <rect x="530" y="390" width="170" height="95" rx="4" fill="#252525"/>
  <!-- Watch silhouette 3 -->
  <circle cx="615" cy="435" r="30" fill="none" stroke="#555" stroke-width="3"/>
  <circle cx="615" cy="435" r="22" fill="#1a1a3a"/>
  <rect x="640" y="425" width="8" height="20" rx="2" fill="#555"/>
  <text x="677" y="400" fill="#666" font-family="sans-serif" font-size="10">♡</text>
  <text x="692" y="400" fill="#666" font-family="sans-serif" font-size="10">⤴</text>

  <!-- Chat bubble -->
  <circle cx="755" cy="500" r="18" fill="#22c55e"/>
  <text x="748" y="506" fill="#fff" font-family="sans-serif" font-size="16">💬</text>
</svg>